<svg width="24" height="24" viewBox="0 0 24 24" fill="none" xmlns="http://www.w3.org/2000/svg">
<path d="M5 21C4.45 21 3.97933 20.8043 3.588 20.413C3.19667 20.0217 3.00067 19.5507 3 19V4C3 3.71667 3.096 3.47933 3.288 3.288C3.48 3.09667 3.71733 3.00067 4 3C4.28333 3 4.521 3.096 4.713 3.288C4.905 3.48 5.00067 3.71733 5 4V19H20C20.2833 19 20.521 19.096 20.713 19.288C20.905 19.48 21.0007 19.7173 21 20C21 20.2833 20.904 20.521 20.712 20.713C20.52 20.905 20.2827 21.0007 20 21H5ZM7 18C6.71667 18 6.47933 17.904 6.288 17.712C6.09667 17.52 6.00067 17.2827 6 17V10C6 9.71667 6.096 9.47933 6.288 9.288C6.48 9.09667 6.71733 9.00067 7 9H9C9.28333 9 9.521 9.096 9.713 9.288C9.905 9.48 10.0007 9.71733 10 10V17C10 17.2833 9.904 17.521 9.712 17.713C9.52 17.905 9.28267 18.0007 9 18H7ZM12 18C11.7167 18 11.4793 17.904 11.288 17.712C11.0967 17.52 11.0007 17.2827 11 17V5C11 4.71667 11.096 4.47933 11.288 4.288C11.48 4.09667 11.7173 4.00067 12 4H14C14.2833 4 14.521 4.096 14.713 4.288C14.905 4.48 15.0007 4.71733 15 5V17C15 17.2833 14.904 17.521 14.712 17.713C14.52 17.905 14.2827 18.0007 14 18H12ZM17 18C16.7167 18 16.4793 17.904 16.288 17.712C16.0967 17.52 16.0007 17.2827 16 17V14C16 13.7167 16.096 13.4793 16.288 13.288C16.48 13.0967 16.7173 13.0007 17 13H19C19.2833 13 19.521 13.096 19.713 13.288C19.905 13.48 20.0007 13.7173 20 14V17C20 17.2833 19.904 17.521 19.712 17.713C19.52 17.905 19.2827 18.0007 19 18H17Z" fill="#4DBFA3"/>
</svg>
